# xmcd
#
# Track frame offsets: 
#        150
#        27710
#        56252
#        76262
#        85805
#        119105
#        139022
#        171975
#
# Disc length: 2523 seconds
#
# Revision: 2
# Processed by: cddbd v1.5.2PL0 Copyright (c) Steve Scherf et al.
# Submitted via: ExactAudioCopy v0.99pb5
#
DISCID=6909d908
DTITLE=Recidive - In Concert - Recydywa Blues Band
DYEAR=1995
DGENRE=Blues
TTITLE0=Midnight Blues (Recidive)
TTITLE1=Ain't Ya Coming Home Baby (Trad.)
TTITLE2=You Don't Love Me (Trad.)
TTITLE3=Lucyna (Recidive, Gwozdziowski)
TTITLE4=Hoochie Coochie man (Trad.)
TTITLE5=Blues For Annie (Recidive)
TTITLE6=Little Sue (Recidive)
TTITLE7=Kansas City (Trad.)
EXTD=
EXTT0=
EXTT1=
EXTT2=
EXTT3=
EXTT4=
EXTT5=
EXTT6=
EXTT7=
PLAYORDER=
